<mxfile host="app.diagrams.net" modified="2023-10-04T19:03:50.490Z" agent="Mozilla/5.0 (X11; Linux x86_64; rv:109.0) Gecko/20100101 Firefox/114.0" etag="Lrsfe_9n313WcWNmUB53" version="22.0.2" type="github">
  <diagram name="Página-1" id="pHb9IEuQ-Au_XOfXAyS_">
    <mxGraphModel dx="1434" dy="752" grid="1" gridSize="10" guides="1" tooltips="1" connect="1" arrows="1" fold="1" page="1" pageScale="1" pageWidth="827" pageHeight="1169" math="0" shadow="0">
      <root>
        <mxCell id="0" />
        <mxCell id="1" parent="0" />
        <mxCell id="zEbTZDo8WHd4felGpuyV-13" style="edgeStyle=orthogonalEdgeStyle;rounded=0;orthogonalLoop=1;jettySize=auto;html=1;entryX=0;entryY=0.5;entryDx=0;entryDy=0;endArrow=none;endFill=0;" edge="1" parent="1" source="zEbTZDo8WHd4felGpuyV-1">
          <mxGeometry relative="1" as="geometry">
            <mxPoint x="340" y="640" as="targetPoint" />
          </mxGeometry>
        </mxCell>
        <mxCell id="zEbTZDo8WHd4felGpuyV-37" style="edgeStyle=orthogonalEdgeStyle;rounded=0;orthogonalLoop=1;jettySize=auto;html=1;endArrow=none;endFill=0;" edge="1" parent="1" source="zEbTZDo8WHd4felGpuyV-1" target="zEbTZDo8WHd4felGpuyV-36">
          <mxGeometry relative="1" as="geometry" />
        </mxCell>
        <mxCell id="zEbTZDo8WHd4felGpuyV-45" style="edgeStyle=orthogonalEdgeStyle;rounded=0;orthogonalLoop=1;jettySize=auto;html=1;entryX=1;entryY=0.5;entryDx=0;entryDy=0;endArrow=none;endFill=0;" edge="1" parent="1" source="zEbTZDo8WHd4felGpuyV-1" target="zEbTZDo8WHd4felGpuyV-41">
          <mxGeometry relative="1" as="geometry" />
        </mxCell>
        <mxCell id="zEbTZDo8WHd4felGpuyV-1" value="LIBROS" style="rounded=0;whiteSpace=wrap;html=1;fillColor=#dae8fc;strokeColor=#6c8ebf;" vertex="1" parent="1">
          <mxGeometry x="180" y="610" width="120" height="60" as="geometry" />
        </mxCell>
        <mxCell id="zEbTZDo8WHd4felGpuyV-15" style="edgeStyle=orthogonalEdgeStyle;rounded=0;orthogonalLoop=1;jettySize=auto;html=1;endArrow=none;endFill=0;" edge="1" parent="1" source="zEbTZDo8WHd4felGpuyV-2" target="zEbTZDo8WHd4felGpuyV-7">
          <mxGeometry relative="1" as="geometry" />
        </mxCell>
        <mxCell id="zEbTZDo8WHd4felGpuyV-2" value="&lt;div&gt;SOCIOS&lt;/div&gt;" style="rounded=0;whiteSpace=wrap;html=1;fillColor=#dae8fc;strokeColor=#6c8ebf;" vertex="1" parent="1">
          <mxGeometry x="500" y="585" width="120" height="60" as="geometry" />
        </mxCell>
        <mxCell id="zEbTZDo8WHd4felGpuyV-62" style="edgeStyle=orthogonalEdgeStyle;rounded=0;orthogonalLoop=1;jettySize=auto;html=1;entryX=0.5;entryY=0;entryDx=0;entryDy=0;endArrow=none;endFill=0;" edge="1" parent="1" source="zEbTZDo8WHd4felGpuyV-3" target="zEbTZDo8WHd4felGpuyV-53">
          <mxGeometry relative="1" as="geometry" />
        </mxCell>
        <mxCell id="zEbTZDo8WHd4felGpuyV-83" style="edgeStyle=orthogonalEdgeStyle;rounded=0;orthogonalLoop=1;jettySize=auto;html=1;entryX=0.5;entryY=0;entryDx=0;entryDy=0;endArrow=none;endFill=0;" edge="1" parent="1" source="zEbTZDo8WHd4felGpuyV-3" target="zEbTZDo8WHd4felGpuyV-82">
          <mxGeometry relative="1" as="geometry" />
        </mxCell>
        <mxCell id="zEbTZDo8WHd4felGpuyV-3" value="PRÉSTAMOS" style="rounded=0;whiteSpace=wrap;html=1;fillColor=#dae8fc;strokeColor=#6c8ebf;" vertex="1" parent="1">
          <mxGeometry x="500" y="805" width="120" height="60" as="geometry" />
        </mxCell>
        <mxCell id="zEbTZDo8WHd4felGpuyV-14" style="edgeStyle=orthogonalEdgeStyle;rounded=0;orthogonalLoop=1;jettySize=auto;html=1;endArrow=none;endFill=0;entryX=0.106;entryY=1.1;entryDx=0;entryDy=0;entryPerimeter=0;" edge="1" parent="1" source="zEbTZDo8WHd4felGpuyV-6" target="zEbTZDo8WHd4felGpuyV-85">
          <mxGeometry relative="1" as="geometry">
            <Array as="points">
              <mxPoint x="475" y="640" />
              <mxPoint x="475" y="730" />
              <mxPoint x="500" y="730" />
              <mxPoint x="500" y="808" />
            </Array>
          </mxGeometry>
        </mxCell>
        <mxCell id="zEbTZDo8WHd4felGpuyV-6" value="piden" style="rhombus;whiteSpace=wrap;html=1;fillColor=#d5e8d4;strokeColor=#82b366;" vertex="1" parent="1">
          <mxGeometry x="350" y="600" width="80" height="80" as="geometry" />
        </mxCell>
        <mxCell id="zEbTZDo8WHd4felGpuyV-16" style="edgeStyle=orthogonalEdgeStyle;rounded=0;orthogonalLoop=1;jettySize=auto;html=1;entryX=0.5;entryY=0;entryDx=0;entryDy=0;endArrow=none;endFill=0;" edge="1" parent="1" source="zEbTZDo8WHd4felGpuyV-7" target="zEbTZDo8WHd4felGpuyV-3">
          <mxGeometry relative="1" as="geometry" />
        </mxCell>
        <mxCell id="zEbTZDo8WHd4felGpuyV-7" value="realizan" style="rhombus;whiteSpace=wrap;html=1;fillColor=#d5e8d4;strokeColor=#82b366;" vertex="1" parent="1">
          <mxGeometry x="520" y="710" width="80" height="80" as="geometry" />
        </mxCell>
        <mxCell id="zEbTZDo8WHd4felGpuyV-20" value="Código de socio" style="ellipse;whiteSpace=wrap;html=1;align=center;fontStyle=4;fillColor=#fff2cc;strokeColor=#d6b656;" vertex="1" parent="1">
          <mxGeometry x="414" y="505" width="120" height="30" as="geometry" />
        </mxCell>
        <mxCell id="zEbTZDo8WHd4felGpuyV-21" value="&lt;u&gt;DNI&lt;/u&gt;" style="ellipse;whiteSpace=wrap;html=1;align=center;fillColor=#fff2cc;strokeColor=#d6b656;" vertex="1" parent="1">
          <mxGeometry x="540" y="505" width="80" height="30" as="geometry" />
        </mxCell>
        <mxCell id="zEbTZDo8WHd4felGpuyV-76" style="edgeStyle=orthogonalEdgeStyle;rounded=0;orthogonalLoop=1;jettySize=auto;html=1;entryX=0.75;entryY=0;entryDx=0;entryDy=0;endArrow=none;endFill=0;" edge="1" parent="1" source="zEbTZDo8WHd4felGpuyV-22" target="zEbTZDo8WHd4felGpuyV-2">
          <mxGeometry relative="1" as="geometry">
            <Array as="points">
              <mxPoint x="590" y="550" />
            </Array>
          </mxGeometry>
        </mxCell>
        <mxCell id="zEbTZDo8WHd4felGpuyV-22" value="DIrección" style="ellipse;whiteSpace=wrap;html=1;align=center;fillColor=#fff2cc;strokeColor=#d6b656;" vertex="1" parent="1">
          <mxGeometry x="650" y="537.5" width="80" height="25" as="geometry" />
        </mxCell>
        <mxCell id="zEbTZDo8WHd4felGpuyV-24" value="Teléfono" style="ellipse;whiteSpace=wrap;html=1;align=center;fillColor=#fff2cc;strokeColor=#d6b656;" vertex="1" parent="1">
          <mxGeometry x="640" y="655" width="80" height="25" as="geometry" />
        </mxCell>
        <mxCell id="zEbTZDo8WHd4felGpuyV-25" value="Nombre" style="ellipse;whiteSpace=wrap;html=1;align=center;fillColor=#fff2cc;strokeColor=#d6b656;" vertex="1" parent="1">
          <mxGeometry x="650" y="582.5" width="80" height="25" as="geometry" />
        </mxCell>
        <mxCell id="zEbTZDo8WHd4felGpuyV-32" style="edgeStyle=orthogonalEdgeStyle;rounded=0;orthogonalLoop=1;jettySize=auto;html=1;endArrow=none;endFill=0;" edge="1" parent="1" source="zEbTZDo8WHd4felGpuyV-26" target="zEbTZDo8WHd4felGpuyV-2">
          <mxGeometry relative="1" as="geometry" />
        </mxCell>
        <mxCell id="zEbTZDo8WHd4felGpuyV-26" value="Apellidos" style="ellipse;whiteSpace=wrap;html=1;align=center;fillColor=#fff2cc;strokeColor=#d6b656;" vertex="1" parent="1">
          <mxGeometry x="650" y="617.5" width="70" height="25" as="geometry" />
        </mxCell>
        <mxCell id="zEbTZDo8WHd4felGpuyV-29" style="edgeStyle=orthogonalEdgeStyle;rounded=0;orthogonalLoop=1;jettySize=auto;html=1;entryX=0.667;entryY=0.05;entryDx=0;entryDy=0;entryPerimeter=0;endArrow=none;endFill=0;" edge="1" parent="1" source="zEbTZDo8WHd4felGpuyV-21" target="zEbTZDo8WHd4felGpuyV-2">
          <mxGeometry relative="1" as="geometry" />
        </mxCell>
        <mxCell id="zEbTZDo8WHd4felGpuyV-31" style="edgeStyle=orthogonalEdgeStyle;rounded=0;orthogonalLoop=1;jettySize=auto;html=1;entryX=0.892;entryY=-0.017;entryDx=0;entryDy=0;entryPerimeter=0;endArrow=none;endFill=0;" edge="1" parent="1" source="zEbTZDo8WHd4felGpuyV-25" target="zEbTZDo8WHd4felGpuyV-2">
          <mxGeometry relative="1" as="geometry" />
        </mxCell>
        <mxCell id="zEbTZDo8WHd4felGpuyV-33" style="edgeStyle=orthogonalEdgeStyle;rounded=0;orthogonalLoop=1;jettySize=auto;html=1;entryX=0.858;entryY=0.983;entryDx=0;entryDy=0;entryPerimeter=0;endArrow=none;endFill=0;" edge="1" parent="1" source="zEbTZDo8WHd4felGpuyV-24" target="zEbTZDo8WHd4felGpuyV-2">
          <mxGeometry relative="1" as="geometry" />
        </mxCell>
        <mxCell id="zEbTZDo8WHd4felGpuyV-81" style="edgeStyle=orthogonalEdgeStyle;rounded=0;orthogonalLoop=1;jettySize=auto;html=1;exitX=0.875;exitY=0.338;exitDx=0;exitDy=0;exitPerimeter=0;endArrow=none;endFill=0;" edge="1" parent="1" target="zEbTZDo8WHd4felGpuyV-1">
          <mxGeometry relative="1" as="geometry">
            <mxPoint x="300" y="680" as="targetPoint" />
            <mxPoint x="280" y="737.04" as="sourcePoint" />
            <Array as="points">
              <mxPoint x="300" y="737" />
            </Array>
          </mxGeometry>
        </mxCell>
        <mxCell id="zEbTZDo8WHd4felGpuyV-36" value="deteriorado" style="rhombus;whiteSpace=wrap;html=1;fillColor=#d5e8d4;strokeColor=#82b366;" vertex="1" parent="1">
          <mxGeometry x="200" y="695" width="80" height="80" as="geometry" />
        </mxCell>
        <mxCell id="zEbTZDo8WHd4felGpuyV-39" value="Título" style="ellipse;whiteSpace=wrap;html=1;align=center;fillColor=#fff2cc;strokeColor=#d6b656;" vertex="1" parent="1">
          <mxGeometry x="50" y="522.5" width="80" height="25" as="geometry" />
        </mxCell>
        <mxCell id="zEbTZDo8WHd4felGpuyV-67" style="edgeStyle=orthogonalEdgeStyle;rounded=0;orthogonalLoop=1;jettySize=auto;html=1;entryX=0;entryY=0;entryDx=0;entryDy=0;endArrow=none;endFill=0;" edge="1" parent="1" source="zEbTZDo8WHd4felGpuyV-40" target="zEbTZDo8WHd4felGpuyV-1">
          <mxGeometry relative="1" as="geometry" />
        </mxCell>
        <mxCell id="zEbTZDo8WHd4felGpuyV-40" value="Editorial (publicación)" style="ellipse;whiteSpace=wrap;html=1;align=center;fillColor=#fff2cc;strokeColor=#d6b656;" vertex="1" parent="1">
          <mxGeometry x="50" y="552.5" width="80" height="45" as="geometry" />
        </mxCell>
        <mxCell id="zEbTZDo8WHd4felGpuyV-41" value="Año" style="ellipse;whiteSpace=wrap;html=1;align=center;fillColor=#fff2cc;strokeColor=#d6b656;" vertex="1" parent="1">
          <mxGeometry x="50" y="607.5" width="80" height="25" as="geometry" />
        </mxCell>
        <mxCell id="zEbTZDo8WHd4felGpuyV-46" style="edgeStyle=orthogonalEdgeStyle;rounded=0;orthogonalLoop=1;jettySize=auto;html=1;entryX=0;entryY=0.75;entryDx=0;entryDy=0;endArrow=none;endFill=0;" edge="1" parent="1" source="zEbTZDo8WHd4felGpuyV-42" target="zEbTZDo8WHd4felGpuyV-1">
          <mxGeometry relative="1" as="geometry" />
        </mxCell>
        <mxCell id="zEbTZDo8WHd4felGpuyV-42" value="Autor" style="ellipse;whiteSpace=wrap;html=1;align=center;fillColor=#fff2cc;strokeColor=#d6b656;" vertex="1" parent="1">
          <mxGeometry x="50" y="642.5" width="80" height="25" as="geometry" />
        </mxCell>
        <mxCell id="zEbTZDo8WHd4felGpuyV-47" style="edgeStyle=orthogonalEdgeStyle;rounded=0;orthogonalLoop=1;jettySize=auto;html=1;entryX=0;entryY=1;entryDx=0;entryDy=0;endArrow=none;endFill=0;" edge="1" parent="1" source="zEbTZDo8WHd4felGpuyV-43" target="zEbTZDo8WHd4felGpuyV-1">
          <mxGeometry relative="1" as="geometry" />
        </mxCell>
        <mxCell id="zEbTZDo8WHd4felGpuyV-43" value="&lt;u&gt;ISBM&lt;/u&gt;" style="ellipse;whiteSpace=wrap;html=1;align=center;fillColor=#fff2cc;strokeColor=#d6b656;" vertex="1" parent="1">
          <mxGeometry x="50" y="677.5" width="80" height="25" as="geometry" />
        </mxCell>
        <mxCell id="zEbTZDo8WHd4felGpuyV-48" style="edgeStyle=orthogonalEdgeStyle;rounded=0;orthogonalLoop=1;jettySize=auto;html=1;endArrow=none;endFill=0;" edge="1" parent="1" source="zEbTZDo8WHd4felGpuyV-44">
          <mxGeometry relative="1" as="geometry">
            <mxPoint x="190" y="675" as="targetPoint" />
          </mxGeometry>
        </mxCell>
        <mxCell id="zEbTZDo8WHd4felGpuyV-44" value="&lt;div&gt;Editorial&lt;/div&gt;&lt;div&gt;(edición)&lt;br&gt;&lt;/div&gt;" style="ellipse;whiteSpace=wrap;html=1;align=center;fillColor=#fff2cc;strokeColor=#d6b656;" vertex="1" parent="1">
          <mxGeometry x="50" y="717.5" width="80" height="40" as="geometry" />
        </mxCell>
        <mxCell id="zEbTZDo8WHd4felGpuyV-53" value="Fecha Préstamo" style="ellipse;whiteSpace=wrap;html=1;align=center;fillColor=#fff2cc;strokeColor=#d6b656;" vertex="1" parent="1">
          <mxGeometry x="640" y="900" width="80" height="40" as="geometry" />
        </mxCell>
        <mxCell id="zEbTZDo8WHd4felGpuyV-65" style="edgeStyle=orthogonalEdgeStyle;rounded=0;orthogonalLoop=1;jettySize=auto;html=1;entryX=0.25;entryY=1;entryDx=0;entryDy=0;endArrow=none;endFill=0;" edge="1" parent="1" source="zEbTZDo8WHd4felGpuyV-54" target="zEbTZDo8WHd4felGpuyV-3">
          <mxGeometry relative="1" as="geometry" />
        </mxCell>
        <mxCell id="zEbTZDo8WHd4felGpuyV-54" value="Fecha Tope" style="ellipse;whiteSpace=wrap;html=1;align=center;fillColor=#fff2cc;strokeColor=#d6b656;" vertex="1" parent="1">
          <mxGeometry x="460" y="900" width="80" height="25" as="geometry" />
        </mxCell>
        <mxCell id="zEbTZDo8WHd4felGpuyV-59" style="edgeStyle=orthogonalEdgeStyle;rounded=0;orthogonalLoop=1;jettySize=auto;html=1;entryX=0.75;entryY=1;entryDx=0;entryDy=0;endArrow=none;endFill=0;" edge="1" parent="1" source="zEbTZDo8WHd4felGpuyV-55" target="zEbTZDo8WHd4felGpuyV-3">
          <mxGeometry relative="1" as="geometry">
            <mxPoint x="590" y="870" as="targetPoint" />
          </mxGeometry>
        </mxCell>
        <mxCell id="zEbTZDo8WHd4felGpuyV-55" value="Fecha Real" style="ellipse;whiteSpace=wrap;html=1;align=center;fillColor=#fff2cc;strokeColor=#d6b656;" vertex="1" parent="1">
          <mxGeometry x="550" y="900" width="80" height="25" as="geometry" />
        </mxCell>
        <mxCell id="zEbTZDo8WHd4felGpuyV-68" style="edgeStyle=orthogonalEdgeStyle;rounded=0;orthogonalLoop=1;jettySize=auto;html=1;entryX=0.183;entryY=0;entryDx=0;entryDy=0;entryPerimeter=0;endArrow=none;endFill=0;" edge="1" parent="1" source="zEbTZDo8WHd4felGpuyV-39" target="zEbTZDo8WHd4felGpuyV-1">
          <mxGeometry relative="1" as="geometry" />
        </mxCell>
        <mxCell id="zEbTZDo8WHd4felGpuyV-80" style="edgeStyle=orthogonalEdgeStyle;rounded=0;orthogonalLoop=1;jettySize=auto;html=1;entryX=0.117;entryY=0.05;entryDx=0;entryDy=0;entryPerimeter=0;endArrow=none;endFill=0;" edge="1" parent="1" source="zEbTZDo8WHd4felGpuyV-20" target="zEbTZDo8WHd4felGpuyV-2">
          <mxGeometry relative="1" as="geometry" />
        </mxCell>
        <mxCell id="zEbTZDo8WHd4felGpuyV-82" value="&lt;u&gt;ID&lt;/u&gt;" style="ellipse;whiteSpace=wrap;html=1;align=center;fillColor=#fff2cc;strokeColor=#d6b656;" vertex="1" parent="1">
          <mxGeometry x="374" y="900" width="80" height="30" as="geometry" />
        </mxCell>
        <mxCell id="zEbTZDo8WHd4felGpuyV-84" value="" style="shape=table;startSize=0;container=1;collapsible=1;childLayout=tableLayout;fixedRows=1;rowLines=0;fontStyle=0;align=center;resizeLast=1;strokeColor=none;fillColor=none;collapsible=0;whiteSpace=wrap;html=1;" vertex="1" parent="1">
          <mxGeometry x="490" y="775" width="180" height="30" as="geometry" />
        </mxCell>
        <mxCell id="zEbTZDo8WHd4felGpuyV-85" value="" style="shape=tableRow;horizontal=0;startSize=0;swimlaneHead=0;swimlaneBody=0;fillColor=none;collapsible=0;dropTarget=0;points=[[0,0.5],[1,0.5]];portConstraint=eastwest;top=0;left=0;right=0;bottom=0;" vertex="1" parent="zEbTZDo8WHd4felGpuyV-84">
          <mxGeometry width="180" height="30" as="geometry" />
        </mxCell>
        <mxCell id="zEbTZDo8WHd4felGpuyV-86" value="" style="shape=partialRectangle;connectable=0;fillColor=none;top=0;left=0;bottom=0;right=0;editable=1;overflow=hidden;" vertex="1" parent="zEbTZDo8WHd4felGpuyV-85">
          <mxGeometry width="30" height="30" as="geometry">
            <mxRectangle width="30" height="30" as="alternateBounds" />
          </mxGeometry>
        </mxCell>
        <mxCell id="zEbTZDo8WHd4felGpuyV-87" value="1:1" style="shape=partialRectangle;connectable=0;fillColor=none;top=0;left=0;bottom=0;right=0;align=left;spacingLeft=6;overflow=hidden;" vertex="1" parent="zEbTZDo8WHd4felGpuyV-85">
          <mxGeometry x="30" width="150" height="30" as="geometry">
            <mxRectangle width="150" height="30" as="alternateBounds" />
          </mxGeometry>
        </mxCell>
        <mxCell id="zEbTZDo8WHd4felGpuyV-88" value="" style="shape=table;startSize=0;container=1;collapsible=1;childLayout=tableLayout;fixedRows=1;rowLines=0;fontStyle=0;align=center;resizeLast=1;strokeColor=none;fillColor=none;collapsible=0;whiteSpace=wrap;html=1;" vertex="1" parent="1">
          <mxGeometry x="480" y="655" width="180" height="30" as="geometry" />
        </mxCell>
        <mxCell id="zEbTZDo8WHd4felGpuyV-89" value="" style="shape=tableRow;horizontal=0;startSize=0;swimlaneHead=0;swimlaneBody=0;fillColor=none;collapsible=0;dropTarget=0;points=[[0,0.5],[1,0.5]];portConstraint=eastwest;top=0;left=0;right=0;bottom=0;" vertex="1" parent="zEbTZDo8WHd4felGpuyV-88">
          <mxGeometry width="180" height="30" as="geometry" />
        </mxCell>
        <mxCell id="zEbTZDo8WHd4felGpuyV-90" value="" style="shape=partialRectangle;connectable=0;fillColor=none;top=0;left=0;bottom=0;right=0;editable=1;overflow=hidden;" vertex="1" parent="zEbTZDo8WHd4felGpuyV-89">
          <mxGeometry width="30" height="30" as="geometry">
            <mxRectangle width="30" height="30" as="alternateBounds" />
          </mxGeometry>
        </mxCell>
        <mxCell id="zEbTZDo8WHd4felGpuyV-91" value="1:N" style="shape=partialRectangle;connectable=0;fillColor=none;top=0;left=0;bottom=0;right=0;align=left;spacingLeft=6;overflow=hidden;" vertex="1" parent="zEbTZDo8WHd4felGpuyV-89">
          <mxGeometry x="30" width="150" height="30" as="geometry">
            <mxRectangle width="150" height="30" as="alternateBounds" />
          </mxGeometry>
        </mxCell>
      </root>
    </mxGraphModel>
  </diagram>
</mxfile>
